<?xml version="1.0" standalone="no"?>
<!DOCTYPE svg PUBLIC "-//W3C//DTD SVG 20010904//EN"
 "http://www.w3.org/TR/2001/REC-SVG-20010904/DTD/svg10.dtd">
<svg version="1.0" xmlns="http://www.w3.org/2000/svg"
 width="254.000000pt" height="254.000000pt" viewBox="0 0 254.000000 254.000000"
 preserveAspectRatio="xMidYMid meet">
<metadata>
Created by potrace 1.14, written by Peter Selinger 2001-2017
</metadata>
<g transform="translate(0.000000,254.000000) scale(0.100000,-0.100000)"
fill="#000000" stroke="none">
<path d="M1701 2527 c-6 -8 -30 -56 -54 -108 -39 -82 -53 -102 -115 -157 -39
-34 -92 -91 -118 -127 l-48 -65 -178 -2 c-98 -1 -206 -2 -240 -3 l-63 0 -33
105 c-68 213 -140 360 -177 360 -8 0 -22 -14 -30 -30 -26 -50 -101 -322 -139
-507 -52 -246 -84 -350 -154 -495 -61 -129 -115 -216 -182 -298 -77 -94 -86
-135 -41 -197 57 -78 158 -147 316 -213 55 -24 101 -44 103 -45 1 -1 -5 -16
-14 -34 -20 -39 -14 -101 15 -166 15 -33 18 -58 14 -102 -4 -47 1 -75 27 -153
23 -70 33 -121 37 -192 l6 -98 49 0 c27 0 48 3 46 8 -44 86 -93 195 -117 265
-31 89 -41 182 -20 189 7 2 1 26 -16 62 -15 32 -29 82 -32 111 -9 82 30 129
56 67 29 -70 155 -190 271 -259 99 -58 211 -66 334 -24 72 25 69 25 56 2 -16
-30 -158 -97 -223 -105 -75 -10 -156 8 -237 50 -35 19 -67 34 -71 34 -19 0 8
-45 46 -75 80 -66 134 -77 239 -50 44 12 175 67 216 92 3 2 5 -16 6 -39 1 -24
3 -64 5 -90 2 -25 1 -44 -2 -42 -12 7 -49 -28 -49 -47 0 -14 -7 -19 -29 -19
-17 0 -33 -5 -36 -11 -5 -6 -13 -3 -22 10 -8 12 -25 21 -39 21 -16 0 -28 8
-35 24 -6 13 -21 27 -32 30 -29 7 -67 -19 -67 -48 0 -30 33 -60 60 -53 15 4
20 0 20 -14 0 -24 34 -42 69 -34 19 4 32 1 41 -10 7 -8 25 -15 40 -15 22 0 31
7 42 30 12 28 38 42 38 20 0 -18 20 -11 61 22 l40 32 50 -50 c32 -32 48 -55
45 -67 -4 -16 11 -17 207 -17 196 0 212 1 232 20 25 23 74 18 54 -6 -10 -12
37 -14 300 -14 l311 0 0 90 c0 87 -1 90 -19 78 -11 -7 -27 -29 -37 -50 -17
-37 -36 -48 -49 -28 -9 15 12 50 61 101 l45 45 -3 170 -3 169 -245 107 -245
107 -3 34 c-4 42 5 49 101 81 92 31 236 101 331 163 106 68 72 60 -48 -11
-139 -83 -372 -180 -351 -146 3 6 0 23 -8 40 -14 26 -13 30 4 46 21 19 25 64
8 81 -13 13 36 52 91 73 82 32 264 121 315 155 41 28 55 43 55 61 0 22 -4 20
-80 -30 -85 -57 -180 -97 -278 -116 -83 -17 -94 -12 -80 37 19 72 116 258 181
348 36 50 109 135 161 189 92 95 96 102 96 144 l0 44 -42 -33 c-74 -56 -234
-224 -288 -301 -66 -94 -128 -207 -155 -281 l-22 -59 -22 141 -22 140 57 93
c112 185 264 338 475 480 13 9 21 19 18 22 -11 12 -240 -167 -309 -240 -93
-99 -130 -147 -194 -248 -31 -51 -57 -83 -60 -75 -2 8 -14 66 -27 129 -17 88
-24 172 -30 360 -7 236 -21 345 -49 374 -5 5 -24 0 -45 -13 -20 -11 -39 -21
-44 -21 -4 0 -17 20 -29 45 -23 47 -33 53 -51 32z m176 -112 c19 -76 33 -211
32 -310 l-1 -90 -28 110 c-15 61 -42 154 -60 208 -17 55 -30 100 -28 101 30
23 55 35 62 33 6 -2 16 -25 23 -52z m-336 -241 l-39 -99 -57 -3 -57 -3 19 32
c21 38 160 185 167 178 3 -3 -12 -50 -33 -105z m102 -460 c49 -35 117 -131
148 -211 32 -83 34 -230 2 -288 -30 -56 -89 -110 -153 -139 -133 -62 -273 -5
-341 139 -25 51 -29 72 -29 145 0 98 19 182 57 251 35 65 72 98 135 121 70 24
128 19 181 -18z m-785 -18 c43 -22 96 -97 123 -171 30 -85 38 -258 15 -320
-31 -80 -145 -174 -212 -175 -84 -1 -197 77 -247 169 -87 158 31 487 184 518
49 10 88 4 137 -21z m1190 -647 c-2 -6 -8 -10 -13 -10 -5 0 -11 4 -13 10 -2 6
4 11 13 11 9 0 15 -5 13 -11z m-47 -112 c-13 -13 -26 -3 -16 12 3 6 11 8 17 5
6 -4 6 -10 -1 -17z m26 -69 c-27 -46 -35 -52 -54 -40 -20 13 -4 52 22 52 12 0
28 7 35 15 23 28 22 15 -3 -27z m-107 13 c0 -6 -4 -13 -10 -16 -5 -3 -10 1
-10 9 0 9 5 16 10 16 6 0 10 -4 10 -9z m-90 -41 c0 -5 -7 -10 -15 -10 -8 0
-15 5 -15 10 0 6 7 10 15 10 8 0 15 -4 15 -10z m-110 -40 c0 -5 -4 -10 -10
-10 -5 0 -10 5 -10 10 0 6 5 10 10 10 6 0 10 -4 10 -10z m-100 -40 c0 -5 -4
-10 -9 -10 -6 0 -13 5 -16 10 -3 6 1 10 9 10 9 0 16 -4 16 -10z m173 -88 c-17
-41 -33 -63 -33 -44 0 23 32 92 40 87 5 -3 2 -22 -7 -43z m51 -5 c-7 -18 -44
-24 -44 -7 0 6 7 10 16 10 11 0 14 6 9 23 -7 20 -6 21 9 6 10 -9 14 -22 10
-32z m-299 23 c3 -5 2 -10 -4 -10 -5 0 -13 5 -16 10 -3 6 -2 10 4 10 5 0 13
-4 16 -10z m330 -27 c-4 -10 -12 -30 -17 -45 -8 -23 -28 -39 -28 -23 0 16 34
85 42 85 6 0 7 -8 3 -17z m41 -4 c3 -6 2 -21 -4 -32 -6 -12 -13 -30 -16 -39
-9 -29 -23 -21 -22 12 1 16 7 32 15 35 7 3 10 12 7 20 -6 17 9 20 20 4z m67
-22 c4 3 9 -1 12 -9 8 -20 -22 -88 -39 -88 -11 0 -10 8 5 36 10 21 16 41 13
45 -11 19 -24 7 -35 -31 -8 -27 -16 -37 -22 -31 -6 6 -5 21 3 43 16 39 30 50
46 38 6 -6 14 -7 17 -3z m-448 -28 c4 -6 5 -12 2 -15 -7 -7 -37 7 -37 17 0 13
27 11 35 -2z m245 -16 c0 -20 -76 -173 -86 -173 -25 0 -23 18 13 102 30 70 40
84 55 80 10 -2 18 -6 18 -9z m270 12 c0 -2 -7 -23 -16 -45 -11 -27 -22 -40
-35 -40 -10 0 -19 5 -19 10 0 6 5 10 11 10 5 0 17 16 25 35 8 19 19 35 24 35
6 0 10 -2 10 -5z m15 -58 c-19 -45 -19 -47 0 -47 8 0 15 -4 15 -10 0 -14 -11
-12 -34 5 -17 13 -17 15 -1 60 10 26 22 42 27 37 5 -5 2 -24 -7 -45z m-232 15
c23 -20 22 -47 -3 -72 -12 -12 -18 -25 -15 -29 6 -11 -22 -81 -33 -81 -26 1
-32 17 -17 53 13 33 13 37 -1 45 -20 11 -10 32 16 32 26 0 35 18 17 38 -8 9
-12 23 -10 30 5 13 17 9 46 -16z m277 7 c0 -6 -4 -7 -10 -4 -5 3 -10 11 -10
16 0 6 5 7 10 4 6 -3 10 -11 10 -16z m58 -18 c8 -5 12 -17 9 -27 -4 -17 -6
-17 -12 4 -4 12 -11 22 -15 22 -9 0 -30 -46 -30 -65 0 -18 17 -20 23 -2 3 9 7
9 17 0 9 -9 8 -13 -7 -21 -14 -8 -24 -6 -40 6 -20 16 -21 19 -6 55 15 37 34
46 61 28z m-68 -17 c0 -2 -7 -4 -15 -4 -8 0 -15 4 -15 10 0 5 7 7 15 4 8 -4
15 -8 15 -10z m-184 -8 c3 -8 -10 -50 -29 -93 -28 -62 -39 -77 -53 -75 -11 2
-20 5 -22 6 -1 2 15 42 35 89 36 82 57 104 69 73z m346 -24 c-14 -4 -62 16
-62 28 0 5 16 2 36 -7 19 -10 31 -19 26 -21z m-298 12 c17 -7 22 -34 7 -34
-21 0 -41 13 -41 26 0 15 10 17 34 8z m266 -18 c0 -15 -24 -66 -31 -66 -12 0
-11 14 3 45 9 20 28 35 28 21z m-145 -91 c-14 -106 -26 -146 -43 -143 -11 2
-17 13 -16 28 1 14 -5 29 -12 33 -20 12 -17 27 6 27 11 0 20 6 20 13 0 6 3 23
6 37 5 17 -8 5 -40 -37 -36 -47 -51 -60 -66 -56 -23 6 -23 5 48 101 51 67 55
70 79 59 23 -10 25 -14 18 -62z m-150 32 c10 -8 15 -19 11 -25 -10 -16 -56 6
-49 24 6 17 14 18 38 1z m247 -38 c-4 -23 -67 -169 -72 -169 -3 0 -11 4 -19 9
-12 8 -12 15 2 48 44 109 59 134 75 130 9 -2 16 -10 14 -18z m-277 -42 c27
-20 11 -39 -20 -25 -26 11 -30 20 -18 31 9 10 17 9 38 -6z m389 4 c5 -7 -56
-167 -68 -178 -2 -2 -11 -1 -20 3 -19 7 -17 19 27 117 27 62 47 81 61 58z m90
-37 c31 -14 56 -32 56 -40 0 -18 3 -18 -66 12 -69 30 -68 30 -59 43 8 14 4 15
69 -15z m-8 -45 c9 -15 -45 -139 -62 -139 -25 0 -24 19 3 84 25 63 43 80 59
55z m98 5 c29 -11 16 -104 -13 -104 -4 0 -6 25 -6 55 0 30 1 55 2 55 1 0 8 -3
17 -6z m-304 -44 c11 -6 12 -12 4 -20 -13 -13 -44 -2 -44 16 0 16 18 18 40 4z
m-1186 -91 c-3 -5 -10 -7 -15 -3 -5 3 -7 10 -3 15 3 5 10 7 15 3 5 -3 7 -10 3
-15z m331 1 c0 -7 -6 -15 -12 -17 -8 -3 -13 4 -13 17 0 13 5 20 13 18 6 -3 12
-11 12 -18z m-65 -4 c0 -11 -19 -15 -25 -6 -3 5 1 10 9 10 9 0 16 -2 16 -4z
m-186 -47 c-3 -5 -10 -7 -15 -3 -5 3 -7 10 -3 15 3 5 10 7 15 3 5 -3 7 -10 3
-15z m701 1 c3 -5 1 -10 -4 -10 -6 0 -11 5 -11 10 0 6 2 10 4 10 3 0 8 -4 11
-10z m-603 -15 c0 -5 -5 -11 -11 -13 -6 -2 -11 4 -11 13 0 9 5 15 11 13 6 -2
11 -8 11 -13z m698 -46 c-15 -26 -26 -31 -40 -14 -17 20 3 45 30 38 15 -4 17
-9 10 -24z"/>
<path d="M1521 1697 c-41 -124 -40 -565 1 -614 30 -37 44 10 57 198 14 188 14
304 0 371 -18 84 -40 101 -58 45z"/>
<path d="M756 1692 c-24 -39 -35 -438 -15 -562 10 -67 31 -102 49 -84 38 38
40 484 4 631 -6 22 -28 31 -38 15z"/>
</g>
</svg>
